<svg xmlns="http://www.w3.org/2000/svg" width="40" height="40" viewBox="0 0 40 40">
  <g id="Additional_account" data-name="Additional account" transform="translate(-2067 -494)">
    <path id="Path_49" data-name="Path 49" d="M20,0A20,20,0,1,1,0,20,20,20,0,0,1,20,0Z" transform="translate(2107 534) rotate(180)" fill="#fef0e2"/>
    <g id="add_acc" data-name="add acc" transform="translate(3170.984 -1222.42)">
      <g id="Group_110" data-name="Group 110" transform="translate(-1264.704 1215.931)">
        <path id="Subtraction_1" data-name="Subtraction 1" d="M22.011,7.319l0,0a2.888,2.888,0,0,0-1.442-.848V4.095A2.169,2.169,0,0,0,18.4,1.929H3.611a2.152,2.152,0,0,0-1.723.854,2.885,2.885,0,0,0-1.871.964A3.616,3.616,0,0,1,3.611.484H18.4a3.614,3.614,0,0,1,3.61,3.611V7.319Z" transform="translate(168.446 508.426)" fill="#333e48"/>
        <g id="_2991195" data-name="2991195" transform="translate(170.638 516.279)">
          <path id="Path_168" data-name="Path 168" d="M187.857,362h-8.135a.722.722,0,1,0,0,1.444h8.135a.722.722,0,1,0,0-1.444Z" transform="translate(-179 -352.363)" fill="#e24301"/>
          <path id="Union_1" data-name="Union 1" d="M.815,10.082A.816.816,0,0,1,0,9.266,2.718,2.718,0,0,1,2.718,6.548h.914A2.719,2.719,0,0,1,6.351,9.266a.816.816,0,0,1-.816.815Zm.619-5.25A1.715,1.715,0,1,1,3.15,6.548,1.716,1.716,0,0,1,1.435,4.832Z" transform="translate(0 -2.722)" fill="#333e48"/>
          <path id="Path_172" data-name="Path 172" d="M184.02,362h-2.975a.722.722,0,1,0,0,1.444h2.975a.722.722,0,1,0,0-1.444Z" transform="translate(-170.794 -359.567)" fill="#e24301"/>
          <circle id="Ellipse_23" data-name="Ellipse 23" cx="0.722" cy="0.722" r="0.722" transform="translate(7.318 2.433)" fill="#e24301"/>
        </g>
        <g id="_992667" data-name="992667" transform="translate(167.737 511.194)">
          <g id="Group_109" data-name="Group 109" transform="translate(0 0)">
            <path id="Path_169" data-name="Path 169" d="M20.6,41.976l-6.97-.047a2.883,2.883,0,0,1-1.428-.495s-1.737-1.039-2.539-1.555a3.578,3.578,0,0,0-1.711-.523H2.894A2.9,2.9,0,0,0,0,42.25V56.34a2.9,2.9,0,0,0,2.894,2.894H20.609a2.9,2.9,0,0,0,2.881-2.9V44.87A2.9,2.9,0,0,0,20.6,41.976ZM21.72,56.335A1.125,1.125,0,0,1,20.6,57.464H2.894A1.126,1.126,0,0,1,1.77,56.34V42.25a1.127,1.127,0,0,1,1.124-1.125H6.633c1.347,0,1.684-.017,1.911.138s.232.171,2.831,1.669c0,0,1.049.658,1.29.743a1.456,1.456,0,0,0,.5.071H20.6A1.126,1.126,0,0,1,21.72,44.87V56.335Z" transform="translate(0 -39.356)" fill="#e24301"/>
          </g>
        </g>
      </g>
      <g id="Group_111" data-name="Group 111">
        <circle id="Ellipse_26" data-name="Ellipse 26" cx="5" cy="5" r="5" transform="translate(-1082 1737)" fill="#fef0e2"/>
        <path id="Subtraction_2" data-name="Subtraction 2" d="M6,12a6,6,0,1,1,6-6A6.007,6.007,0,0,1,6,12ZM6,1a5,5,0,1,0,5,5A5.006,5.006,0,0,0,6,1Z" transform="translate(-1083 1736)" fill="#e24301"/>
        <path id="Path_173" data-name="Path 173" d="M182,362h-4.476a.527.527,0,1,0,0,1.054H182A.527.527,0,1,0,182,362Z" transform="translate(-1256.765 1379.473)" fill="#e24301"/>
        <path id="Path_174" data-name="Path 174" d="M5,0H.527a.527.527,0,1,0,0,1.054H5A.527.527,0,1,0,5,0Z" transform="translate(-1076.473 1739.235) rotate(90)" fill="#e24301"/>
      </g>
    </g>
  </g>
</svg>
